# AST/ASF file generated using VICON BodyLanguage
# -----------------------------------------------
:version 1.10
:name VICON
:units
  mass 1.0
  length 0.45
  angle deg
:documentation
   .ast/.asf automatically generated from VICON data using
   VICON BodyBuilder and BodyLanguage model FoxedUp or BRILLIANT.MOD
:root
   order TX TY TZ RX RY RZ
   axis XYZ
   position 0 0 0  
   orientation 0 0 0 
:bonedata
  begin
     id 1 
     name lhipjoint
     direction 0.541323 -0.757556 0.364798 
     length 2.47576 
     axis 0 0 0  XYZ
  end
  begin
     id 2 
     name lfemur
     direction 0.34202 -0.939693 0  
     length 7.46493  
     axis 0 0 20  XYZ
    dof rx ry rz
    limits (-160.0 20.0)
           (-70.0 70.0)
           (-60.0 70.0)
  end
  begin
     id 3 
     name ltibia
     direction 0.34202 -0.939693 0   
     length 7.73805   
     axis 0 0 20   XYZ
    dof rx
    limits (-10.0 170.0)
  end
  begin
     id 4 
     name lfoot
     direction 0.107174 -0.294458 0.949636   
     length 2.25864   
     axis -90 7.62852e-016 20   XYZ
    dof rx rz
    limits (-45.0 90.0)
           (-70.0 20.0)
  end
  begin
     id 5 
     name ltoes
     direction 1.53606e-011 -4.21934e-011 1   
     length 1.12451   
     axis -90 7.62852e-016 20   XYZ
    dof rx
    limits (-90.0 20.0)
  end
  begin
     id 6 
     name rhipjoint
     direction -0.524745 -0.766967 0.36933   
     length 2.44538  
     axis 0 0 0  XYZ 
  end
  begin
     id 7 
     name rfemur
     direction -0.34202 -0.939693 0   
     length 7.61604   
     axis 0 0 -20   XYZ
    dof rx ry rz
    limits (-160.0 20.0)
           (-70.0 70.0)
           (-70.0 60.0)
  end
  begin
     id 8 
     name rtibia
     direction -0.34202 -0.939693 0   
     length 7.61056   
     axis 0 0 -20   XYZ
    dof rx
    limits (-10.0 170.0)
 end
 begin
     id 9 
     name rfoot
     direction -0.12616 -0.346623 0.929482   
     length 2.46372  
     axis -90 -7.62852e-016 -20   XYZ
    dof rx rz
    limits (-45.0 90.0)
           (-20.0 70.0)
  end
  begin
     id 10 
     name rtoes
     direction -1.53531e-011 -4.22004e-011 1   
     length 1.21611   
     axis -90 -7.62852e-016 -20   XYZ
    dof rx
    limits (-90.0 20.0)
  end
  begin
     id 11 
     name lowerback
     direction -0.000778023 0.997293 -0.0735223   
     length 2.06139   
     axis 0 0 0   XYZ
    dof rx ry rz
    limits (-20.0 45.0)
           (-30.0 30.0)
           (-30.0 30.0)
  end
  begin
     id 12 
     name upperback
     direction 0.0222598 0.999722 -0.0078355   
     length 2.06383   
     axis 0 0 0   XYZ
    dof rx ry rz
    limits (-20.0 45.0)
           (-30.0 30.0)
           (-30.0 30.0)
  end
  begin
     id 13 
     name thorax
     direction 0.0219654 0.999405 0.0265994   
     length 2.07163   
     axis 0 0 0   XYZ
    dof rx ry rz
    limits (-20.0 45.0)
           (-30.0 30.0)
           (-30.0 30.0)
  end
  begin
     id 14 
     name lowerneck
     direction 0.0213282 0.988147 0.15202   
     length 1.75969   
     axis 0 0 0   XYZ
    dof rx ry rz
    limits (-20.0 45.0)
           (-30.0 30.0)
           (-30.0 30.0)
  end
  begin
     id 15 
     name upperneck
     direction -0.0546456 0.982624 -0.177379   
     length 1.79244   
     axis 0 0 0   XYZ
    dof rx ry rz
    limits (-20.0 45.0)
           (-30.0 30.0)
           (-30.0 30.0)
  end
  begin
     id 16
     name head
     direction -0.0199987 0.996855 -0.076686  
     length 1.80555  
     axis 0 0 0   XYZ
    dof rx ry rz
    limits (-20.0 45.0)
           (-30.0 30.0)
           (-30.0 30.0)
  end
  begin
     id 17 
     name lclavicle
     direction 0.929565 0.363219 -0.063096  
     length 3.55722  
     axis 0 0 0   XYZ
    dof ry rz
    limits (-20.0 10.0)
           (0.0 20.0)
  end
  begin
     id 18 
     name lhumerus
     direction 1 -4.48993e-011 -2.36203e-027   
     length 4.92785   
     axis 180 -30 -90   XYZ
    dof rx ry rz
    limits (-60.0 90.0)
           (-90.0 90.0)
           (-90.0 90.0)
  end
  begin
     id 19
     name lradius
     direction 1 -4.48947e-011 2.02997e-027   
     length 3.44052   
     axis 180 -30 -90   XYZ
    dof rx
    limits (-10.0 170.0)
  end
  begin
     id 20
     name lwrist
     direction 1 -4.48962e-011 1.45991e-027   
     length 1.72026   
     axis 1.49639e-024 90 90   XYZ
    dof ry
    limits (-180.0 0.0)
 end
  begin
     id 21 
     name lhand
     direction 1 -4.48984e-011 2.91906e-027   
     length 0.654326   
     axis -1.863e-015 90 90   XYZ
    dof rx rz
    limits (-90.0 90.0)
           (-45.0 45.0)
  end
  begin
     id 22 
     name lfingers
     direction 1 -4.48961e-011 5.83968e-027   
     length 0.527534   
     axis -3.72598e-015 90 90   XYZ
    dof rx
    limits (0.0 90.0)
  end
  begin
     id 23
     name lthumb
     direction 0.707107 -6.34963e-011 0.707107   
     length 0.757437   
     axis -90 45 -6.68868e-015   XYZ
    dof rx rz
    limits (-45.0 45.0)
           (-45.0 45.0)
  end
  begin
     id 24 
     name rclavicle
     direction -0.902944 0.422599 -0.0781198   
     length 3.54432  
     axis 0 0 0   XYZ 
    dof ry rz
    limits (-10.0 20.0)
           (-20.0 0.0)
  end
  begin
     id 25 
     name rhumerus
     direction -1 -4.48953e-011 -4.75835e-028  
     length 5.09181   
     axis 180 30 90   XYZ
    dof rx ry rz
    limits (-90.0 60.0)
           (-90.0 90.0)
           (-90.0 90.0)
  end
  begin
     id 26 
     name rradius
     direction -1 -4.48986e-011 -3.25889e-027   
     length 3.49865   
     axis 180 30 90   XYZ
    dof rx
    limits (-10.0 170.0)
  end
  begin
     id 27 
     name rwrist
     direction -1 -4.48963e-011 1.45989e-027   
     length 1.74933   
     axis 1.49639e-024 -90 -90   XYZ
    dof ry
    limits (-180.0 0.0)
  end
  begin
     id 28
     name rhand
     direction -1 -4.49003e-011 2.91844e-027   
     length 0.66641   
     axis -1.863e-015 -90 -90   XYZ
    dof rx rz
    limits (-90.0 90.0)
           (-45.0 45.0)
  end
  begin
     id 29
     name rfingers
     direction -1 -4.48973e-011 5.83886e-027   
     length 0.537277   
     axis -3.72598e-015 -90 -90   XYZ
    dof rx
    limits (0.0 90.0)
  end
  begin
     id 30
     name rthumb
     direction -0.707107 -6.34976e-011 0.707107   
     length 0.771425   
     axis -90 -45 6.68868e-015   XYZ
    dof rx rz
    limits (-45.0 45.0)
           (-45.0 45.0)
  end
:hierarchy
  begin
    root lhipjoint rhipjoint lowerback
    lhipjoint lfemur
    lfemur ltibia
    ltibia lfoot
    lfoot ltoes
    rhipjoint rfemur
    rfemur rtibia
    rtibia rfoot
    rfoot rtoes
    lowerback upperback
    upperback thorax
    thorax lowerneck lclavicle rclavicle
    lowerneck upperneck
    upperneck head
    lclavicle lhumerus
    lhumerus lradius
    lradius lwrist
    lwrist lhand lthumb
    lhand lfingers
    rclavicle rhumerus
    rhumerus rradius
    rradius rwrist
    rwrist rhand rthumb
    rhand rfingers
  end

#!OML:ASF H:\LiuWeirdWalks\Patient Classification 1\Patient 1\Session 1\male.ASF
:FULLY-SPECIFIED
:DEGREES
179
root 0.834944 18.0168 -26.0858 2.45893 30.8518 -0.883271
lowerback 3.48336 7.37429 1.17169
upperback -0.430419 9.89702 0.596978
thorax -2.28353 4.92563 -0.556249
lowerneck 4.84052 16.7099 13.2937
upperneck -0.120402 23.144 -12.7403
head 2.20114 11.6968 -5.0856
rclavicle 1.77415e-014 5.96354e-015
rhumerus -40.0753 -19.9352 -67.4308
rradius 35.5575
rwrist -12.4607
rhand -19.1499 2.10287
rfingers 7.12502
rthumb 7.16049 -27.756
lclavicle 1.77415e-014 5.96354e-015
lhumerus -28.3142 4.54023 83.9426
lradius 22.2374
lwrist -1.80549
lhand -9.98838 2.21286
lfingers 7.12502
lthumb 15.9948 31.5725
rfemur -1.99338 -11.2723 17.9394
rtibia 24.2048
rfoot -14.9057 -36.9059
rtoes 0.716754
lfemur -12.0889 -9.06349 -15.8354
ltibia 25.3927
lfoot -12.1904 -0.172109
ltoes -9.62846
180
root 0.838712 18.0172 -26.0903 2.46559 30.5466 -0.866183
lowerback 3.4602 7.29084 1.10266
upperback -0.42542 9.78218 0.587694
thorax -2.27678 4.8693 -0.520214
lowerneck 4.57828 16.2763 13.265
upperneck 0.11119 22.5338 -12.477
head 2.20003 11.382 -5.03615
rclavicle -6.27414e-014 -3.97569e-015
rhumerus -39.9985 -19.8676 -67.4962
rradius 35.6955
rwrist -12.5427
rhand -19.1971 2.15545
rfingers 7.12502
rthumb 7.11488 -27.705
lclavicle -6.27414e-014 -3.97569e-015
lhumerus -28.3906 4.70429 83.8034
lradius 22.218
lwrist -2.00597
lhand -10.1085 2.23738
lfingers 7.12502
lthumb 15.8792 31.6063
rfemur -2.04573 -11.1141 17.8838
rtibia 24.2271
rfoot -14.8288 -36.7669
rtoes 0.668032
lfemur -12.0122 -8.97996 -15.8818
ltibia 25.357
lfoot -12.1656 0.05317
ltoes -9.64707
181
root 0.842721 18.0174 -26.0948 2.4715 30.2356 -0.840317
lowerback 3.44493 7.20606 1.03129
upperback -0.420415 9.66531 0.56717
thorax -2.27263 4.81185 -0.495135
lowerneck 4.34415 15.8419 13.1307
upperneck 0.201473 21.9091 -12.2007
head 2.13964 11.0616 -4.98055
rclavicle 1.58456e-013 2.38542e-015
rhumerus -39.9224 -19.8196 -67.5584
rradius 35.8189
rwrist -12.5773
rhand -19.2156 2.19983
rfingers 7.12502
rthumb 7.09708 -27.6612
lclavicle 1.58456e-013 2.38542e-015
lhumerus -28.4498 4.88328 83.6455
lradius 22.1994
lwrist -2.08484
lhand -10.1679 2.28549
lfingers 7.12502
lthumb 15.822 31.659
rfemur -2.09717 -10.9594 17.8157
rtibia 24.2561
rfoot -14.7452 -36.6199
rtoes 0.612551
lfemur -11.9265 -8.92683 -15.94
ltibia 25.319
lfoot -12.1342 0.31309
ltoes -9.67305
182
root 0.847408 18.0176 -26.0996 2.47695 29.8993 -0.818784
lowerback 3.42899 7.1239 0.968246
upperback -0.417395 9.55226 0.543488
thorax -2.26804 4.75618 -0.477784
lowerneck 4.09561 15.4043 12.9037
upperneck 0.245281 21.2721 -11.9155
head 2.05813 10.7351 -4.91126
rclavicle -9.36276e-014 -5.1684e-015
rhumerus -39.8584 -19.7821 -67.6072
rradius 35.942
rwrist -12.5645
rhand -19.1692 2.22126
rfingers 7.12502
rthumb 7.14182 -27.6382
lclavicle -9.36276e-014 -5.1684e-015
lhumerus -28.5088 5.06801 83.481
lradius 22.1827
lwrist -2.10282
lhand -10.202 2.33268
lfingers 7.12502
lthumb 15.7891 31.7087
rfemur -2.15869 -10.8083 17.7446
rtibia 24.2928
rfoot -14.6548 -36.4464
rtoes 0.554734
lfemur -11.8337 -8.89951 -15.9988
ltibia 25.2791
lfoot -12.0948 0.622638
ltoes -9.69821
183
root 0.852438 18.0178 -26.1046 2.48738 29.5464 -0.78971
lowerback 3.38211 7.03899 0.87446
upperback -0.390852 9.43409 0.541392
thorax -2.23046 4.69892 -0.416269
lowerneck 3.79992 14.9601 12.5252
upperneck 0.282416 20.6164 -11.6079
head 1.96546 10.3981 -4.81268
rclavicle -1.32888e-013 -1.11319e-014
rhumerus -39.7584 -19.7277 -67.6288
rradius 36.0537
rwrist -12.4969
rhand -19.0785 2.20642
rfingers 7.12502
rthumb 7.22934 -27.6501
lclavicle -1.32888e-013 -1.11319e-014
lhumerus -28.5484 5.28099 83.3511
lradius 22.1717
lwrist -2.11785
lhand -10.2388 2.37797
lfingers 7.12502
lthumb 15.7536 31.7568
rfemur -2.22766 -10.6601 17.6621
rtibia 24.3359
rfoot -14.5607 -36.255
rtoes 0.490322
lfemur -11.7389 -8.87926 -16.0674
ltibia 25.2375
lfoot -12.0505 0.95384
ltoes -9.72531
184
root 0.857497 18.0182 -26.1098 2.50035 29.1778 -0.763945
lowerback 3.31334 6.94658 0.758552
upperback -0.351025 9.30528 0.561512
thorax -2.17392 4.63692 -0.316414
lowerneck 3.33155 14.4916 12.0732
upperneck 0.573199 19.9268 -11.2314
head 1.96159 10.0384 -4.65976
rclavicle 8.41356e-014 5.1684e-015
rhumerus -39.6384 -19.6406 -67.6334
rradius 36.1633
rwrist -12.3834
rhand -18.9726 2.16849
rfingers 7.12502
rthumb 7.33164 -27.6845
lclavicle 8.41356e-014 5.1684e-015
lhumerus -28.5926 5.51966 83.2451
lradius 22.1769
lwrist -2.12614
lhand -10.2661 2.39768
lfingers 7.12502
lthumb 15.7274 31.7786
rfemur -2.3056 -10.5115 17.5821
rtibia 24.3839
rfoot -14.475 -36.049
rtoes 0.433911
lfemur -11.6466 -8.84013 -16.1325
ltibia 25.1959
lfoot -12.0069 1.27835
ltoes -9.74823
185
root 0.862416 18.0188 -26.1152 2.51193 28.7983 -0.749011
lowerback 3.21826 6.84845 0.620638
upperback -0.29249 9.16837 0.610621
thorax -2.09112 4.57146 -0.170688
lowerneck 2.73852 13.987 11.6192
upperneck 1.06777 19.193 -10.8204
head 2.03522 9.65328 -4.47925
rclavicle -8.37877e-014 -1.11319e-014
rhumerus -39.4721 -19.5163 -67.621
rradius 36.2594
rwrist -12.2781
rhand -18.8856 2.10965
rfingers 7.12502
rthumb 7.41556 -27.7404
lclavicle -8.37877e-014 -1.11319e-014
lhumerus -28.6342 5.77873 83.1776
lradius 22.2048
lwrist -2.14141
lhand -10.2901 2.42827
lfingers 7.12502
lthumb 15.7042 31.811
rfemur -2.39379 -10.3608 17.5132
rtibia 24.4334
rfoot -14.3825 -35.8396
rtoes 0.367856
lfemur -11.5618 -8.77665 -16.1856
ltibia 25.1563
lfoot -11.9645 1.58732
ltoes -9.76388
186
root 0.8675 18.0195 -26.1209 2.5312 28.4142 -0.728788
lowerback 3.09321 6.73621 0.452716
upperback -0.217324 9.01194 0.682481
thorax -1.98193 4.49672 0.0196148
lowerneck 2.05113 13.4602 11.0404
upperneck 1.68474 18.4252 -10.2901
head 2.14037 9.24866 -4.23848
rclavicle -4.22666e-014 0
rhumerus -39.2678 -19.3431 -67.6024
rradius 36.3503
rwrist -12.183
rhand -18.8102 2.05876
rfingers 7.12502
rthumb 7.48838 -27.7887
lclavicle -4.22666e-014 0
lhumerus -28.6764 6.10027 83.1251
lradius 22.242
lwrist -2.16561
lhand -10.309 2.43926
lfingers 7.12502
lthumb 15.686 31.8235
rfemur -2.48778 -10.2216 17.4376
rtibia 24.4816
rfoot -14.2891 -35.6167
rtoes 0.302222
lfemur -11.4855 -8.68986 -16.243
ltibia 25.121
lfoot -11.9279 1.87504
ltoes -9.76793
187
root 0.872144 18.0205 -26.1273 2.54396 28.0028 -0.734563
lowerback 2.96612 6.6307 0.296701
upperback -0.140306 8.86553 0.763337
thorax -1.86813 4.42659 0.212282
lowerneck 1.46516 12.901 10.3623
upperneck 2.14806 17.6082 -9.5923
head 2.16348 8.82416 -3.95288
rclavicle -5.66536e-015 -1.15295e-014
rhumerus -39.0579 -19.1617 -67.5803
rradius 36.4416
rwrist -12.11
rhand -18.7574 2.05333
rfingers 7.12502
rthumb 7.53934 -27.7923
lclavicle -5.66536e-015 -1.15295e-014
lhumerus -28.7192 6.40293 83.086
lradius 22.2926
lwrist -2.16813
lhand -10.3286 2.45383
lfingers 7.12502
lthumb 15.6672 31.8395
rfemur -2.59737 -10.0539 17.3915
rtibia 24.5262
rfoot -14.1702 -35.4002
rtoes 0.219228
lfemur -11.4209 -8.57569 -16.2726
ltibia 25.0913
lfoot -11.8901 2.1582
ltoes -9.76398
188
root 0.876698 18.0215 -26.1336 2.55349 27.5763 -0.745678
lowerback 2.85171 6.52054 0.150993
upperback -0.0662837 8.71369 0.838205
thorax -1.76078 4.3532 0.391604
lowerneck 0.861636 12.3378 9.68452
upperneck 2.6406 16.7907 -8.87024
head 2.20747 8.40088 -3.65454
rclavicle -6.35614e-014 0
rhumerus -38.8405 -18.9726 -67.5712
rradius 36.5277
rwrist -12.0588
rhand -18.7088 2.06566
rfingers 7.12502
rthumb 7.58619 -27.7783
lclavicle -6.35614e-014 0
lhumerus -28.7698 6.71246 83.0279
lradius 22.344
lwrist -2.18114
lhand -10.3457 2.4612
lfingers 7.12502
lthumb 15.6507 31.8482
rfemur -2.70828 -9.87189 17.3515
rtibia 24.5687
rfoot -14.0527 -35.1835
rtoes 0.140069
lfemur -11.3518 -8.4549 -16.2962
ltibia 25.0654
lfoot -11.8581 2.44692
ltoes -9.74804
189
root 0.880904 18.0226 -26.1398 2.55836 27.1374 -0.768735
lowerback 2.76123 6.40108 0.0266316
upperback -0.00108685 8.55053 0.904634
thorax -1.67013 4.27355 0.547728
lowerneck 0.260347 11.7772 9.0472
upperneck 3.03955 15.9676 -7.85878
head 2.45697 7.99611 -3.64088
rclavicle -4.7932e-014 -7.95139e-016
rhumerus -38.6173 -18.762 -67.5895
rradius 36.6115
rwrist -12.0422
rhand -18.6804 2.08646
rfingers 7.12502
rthumb 7.61369 -27.7565
lclavicle -4.7932e-014 -7.95139e-016
lhumerus -28.8323 7.02752 82.9451
lradius 22.3986
lwrist -2.18327
lhand -10.3608 2.44117
lfingers 7.12502
lthumb 15.6361 31.8293
rfemur -2.82324 -9.66663 17.3276
rtibia 24.6101
rfoot -13.9237 -34.9782
rtoes 0.048377
lfemur -11.285 -8.32417 -16.3057
ltibia 25.0411
lfoot -11.8254 2.73469
ltoes -9.72441
